<?xml version="1.0" encoding="UTF-8"?>
<!--
    Modern's entry in the Active Theme picker.

    Drawn rather than photographed so it stays sharp at any size, weighs a few
    kilobytes, and never goes stale against a browser or a screen resolution.

    Deliberately the same view as theme_diu's preview — the same masthead, the
    same sidebar, the same three cards. These two themes share a layout and
    differ only in how the surfaces are treated, so showing two different pages
    would hide the actual choice being made.

    What differs, and what this drawing has to show: a frosted translucent
    masthead instead of a solid white one, a page tinted with soft brand washes,
    much rounder cards carrying a real shadow rather than a hard slate border,
    pill-shaped tags instead of square ones, and lighter hairlines throughout.

    Colours are the theme's own light defaults (#034ea2 primary, #0072bc accent,
    #f6f7f9 page) rather than CSS variables — an <img> is a separate document
    and cannot read the page's custom properties. An administrator who changes
    the palette changes the site, not this drawing.
-->
<svg xmlns="http://www.w3.org/2000/svg" viewBox="0 0 1200 750" width="1200" height="750"
     role="img" aria-label="Modern theme preview: the same faculty directory on a soft tinted page, with a frosted masthead and deeply rounded shadowed cards">

    <defs>
        <linearGradient id="mod-bar" x1="0" y1="0" x2="1" y2="0">
            <stop offset="0" stop-color="#034ea2"/>
            <stop offset="1" stop-color="#0a5aad"/>
        </linearGradient>
        <linearGradient id="mod-card-top" x1="0" y1="0" x2="1" y2="0">
            <stop offset="0" stop-color="#034ea2"/>
            <stop offset="1" stop-color="#023b7a"/>
        </linearGradient>
        <linearGradient id="mod-card-top-accent" x1="0" y1="0" x2="1" y2="0">
            <stop offset="0" stop-color="#0072bc"/>
            <stop offset="1" stop-color="#005fa3"/>
        </linearGradient>
        <pattern id="mod-mesh" width="9" height="9" patternUnits="userSpaceOnUse">
            <circle cx="1" cy="1" r="0.9" fill="#ffffff" fill-opacity="0.55"/>
        </pattern>
        <!-- The soft card shadow this theme leans on in place of a border. -->
        <filter id="mod-shadow" x="-20%" y="-20%" width="140%" height="140%">
            <feDropShadow dx="0" dy="6" stdDeviation="9" flood-color="#101828" flood-opacity="0.09"/>
        </filter>
    </defs>

    <!-- The page: near-neutral, with three soft brand washes fixed behind it. -->
    <rect width="1200" height="750" fill="#f6f7f9"/>
    <circle cx="30" cy="20" r="620" fill="#4dc3e6" fill-opacity="0.09"/>
    <circle cx="1180" cy="10" r="560" fill="#034ea2" fill-opacity="0.07"/>
    <ellipse cx="600" cy="760" rx="700" ry="300" fill="#0072bc" fill-opacity="0.05"/>

    <!-- ── Tier 1: the navy micro-bar ─────────────────────────────────────── -->
    <rect width="1200" height="26" fill="#002652"/>
    <text x="32" y="17" font-family="Manrope, sans-serif" font-size="10.5" fill="#ffffff" fill-opacity="0.92">Smart City campus: Ashulia, Savar, Dhaka</text>
    <text x="268" y="17" font-family="Manrope, sans-serif" font-size="10.5" fill="#ffffff" fill-opacity="0.35">|</text>
    <text x="284" y="17" font-family="Manrope, sans-serif" font-size="10.5" fill="#ffffff" fill-opacity="0.8">Email: info@daffodilvarsity.edu.bd</text>
    <rect x="1092" y="6" width="15" height="15" rx="5" fill="none" stroke="#ffffff" stroke-opacity="0.25"/>
    <path d="M1097.4 10.6a3.4 3.4 0 0 0 5 5 5 5 0 1 1-5-5Z" fill="none" stroke="#ffffff" stroke-opacity="0.9" stroke-width="1.2"/>
    <text x="1168" y="17" text-anchor="end" font-family="Manrope, sans-serif" font-size="10.5" font-weight="600" fill="#ffffff" fill-opacity="0.92">Main Site</text>

    <!-- ── Tier 2: the frosted lockup. Translucent, so the wash behind it
             shows through — that is the whole difference from DIU here. ───── -->
    <rect y="26" width="1200" height="70" fill="#ffffff" fill-opacity="0.72"/>
    <line x1="0" y1="96" x2="1200" y2="96" stroke="#ffffff" stroke-opacity="0.6"/>

    <rect x="60" y="43" width="36" height="36" rx="13" fill="#034ea2" stroke="#0072bc" stroke-width="2"/>
    <path d="M96 43 L96 55 L84 43 Z" fill="#0072bc"/>
    <text x="78" y="69" text-anchor="middle" font-family="Montserrat, sans-serif" font-size="19" font-weight="800" fill="#ffffff">D</text>

    <text x="108" y="59" font-family="Montserrat, sans-serif" font-size="17" font-weight="900" letter-spacing="-0.4" fill="#034ea2">DAFFODIL</text>
    <rect x="204" y="46" width="66" height="15" rx="2" fill="#034ea2"/>
    <text x="237" y="57" text-anchor="middle" font-family="Manrope, sans-serif" font-size="8.5" font-weight="700" letter-spacing="1" fill="#ffffff">DIRECTORY</text>
    <text x="108" y="74" font-family="Manrope, sans-serif" font-size="9.5" font-weight="600" letter-spacing="1.6" fill="#7b828c">INTERNATIONAL UNIVERSITY, BANGLADESH</text>

    <rect x="854" y="46" width="188" height="34" rx="14" fill="#f3f4f6" stroke="#eceef1"/>
    <text x="944" y="60" text-anchor="end" font-family="Manrope, sans-serif" font-size="8" font-weight="700" letter-spacing="0.9" fill="#a3aab5">ACADEMIC PORTAL</text>
    <text x="944" y="73" text-anchor="end" font-family="Manrope, sans-serif" font-size="10.5" font-weight="800" fill="#41474f">Active Directory</text>
    <rect x="954" y="52" width="80" height="22" rx="11" fill="#034ea2" fill-opacity="0.1"/>
    <text x="994" y="67" text-anchor="middle" font-family="ui-monospace, monospace" font-size="10" font-weight="700" fill="#034ea2">1861 Scholars</text>

    <rect x="1054" y="46" width="86" height="34" rx="14" fill="#034ea2"/>
    <rect x="1066" y="57" width="11" height="8" rx="2" fill="none" stroke="#0072bc" stroke-width="1.5"/>
    <path d="M1068.5 57v-2.5a3 3 0 0 1 6 0V57" fill="none" stroke="#0072bc" stroke-width="1.5"/>
    <text x="1104" y="67" text-anchor="middle" font-family="Manrope, sans-serif" font-size="10.5" font-weight="700" fill="#ffffff">Teacher Login</text>

    <!-- ── Tier 3: the statistics strip ───────────────────────────────────── -->
    <rect y="96" width="1200" height="34" fill="url(#mod-bar)"/>
    <g stroke="#4dc3e6" stroke-width="1.6" fill="none" stroke-linecap="round" stroke-linejoin="round">
        <path d="M62 120h13M65.5 120v-9l5-2.5v11.5M72.5 120v-6l-3.5-2.5"/>
        <path d="M222 120h13M225.5 120v-9l5-2.5v11.5M232.5 120v-6l-3.5-2.5"/>
        <path d="M394 120v-1.5a2.6 2.6 0 0 0-2.6-2.6h-3.9a2.6 2.6 0 0 0-2.6 2.6V120M389.5 111.5a2.6 2.6 0 1 0 0-5.2 2.6 2.6 0 0 0 0 5.2"/>
    </g>
    <text x="84" y="119" font-family="Manrope, sans-serif" font-size="11" fill="#ffffff"><tspan font-weight="800">9</tspan> Academic Faculties</text>
    <text x="244" y="119" font-family="Manrope, sans-serif" font-size="11" fill="#ffffff"><tspan font-weight="800">30</tspan> Departments</text>
    <text x="404" y="119" font-family="Manrope, sans-serif" font-size="11" fill="#ffffff"><tspan font-weight="800">1861</tspan> Faculty Profiles</text>

    <!-- ── The filter sidebar ─────────────────────────────────────────────── -->
    <g>
        <rect x="60" y="163" width="12" height="12" rx="1.5" fill="none" stroke="#034ea2" stroke-width="1.6"/>
        <text x="80" y="174" font-family="Manrope, sans-serif" font-size="14" font-weight="700" fill="#58595B">Academic Faculties</text>
        <line x1="60" y1="185" x2="330" y2="185" stroke="#f1f3f6" stroke-width="1.5"/>

        <rect x="60" y="193" width="270" height="30" fill="#eef6ff"/>
        <rect x="60" y="193" width="3" height="30" fill="#034ea2"/>
        <text x="74" y="212" font-family="Manrope, sans-serif" font-size="12.5" font-weight="500" fill="#0b1120">All Faculties</text>

        <line x1="60" y1="223" x2="60" y2="373" stroke="#A7A9AC"/>
        <g font-family="Manrope, sans-serif" font-size="12.5" font-weight="500" fill="#41474f">
            <text x="74" y="242">Science &amp; Information Technology</text>
            <rect x="290" y="231" width="30" height="14" rx="7" fill="#f1f3f6"/>
            <text x="305" y="242" text-anchor="middle" font-size="9" font-weight="600" fill="#a3aab5">412</text>

            <text x="74" y="272">Engineering</text>
            <rect x="290" y="261" width="30" height="14" rx="7" fill="#f1f3f6"/>
            <text x="305" y="272" text-anchor="middle" font-size="9" font-weight="600" fill="#a3aab5">327</text>

            <text x="74" y="302">Business &amp; Entrepreneurship</text>
            <rect x="290" y="291" width="30" height="14" rx="7" fill="#f1f3f6"/>
            <text x="305" y="302" text-anchor="middle" font-size="9" font-weight="600" fill="#a3aab5">288</text>

            <text x="74" y="332">Allied Health Sciences</text>
            <rect x="290" y="321" width="30" height="14" rx="7" fill="#f1f3f6"/>
            <text x="305" y="332" text-anchor="middle" font-size="9" font-weight="600" fill="#a3aab5">241</text>

            <text x="74" y="362">Humanities &amp; Social Science</text>
            <rect x="290" y="351" width="30" height="14" rx="7" fill="#f1f3f6"/>
            <text x="305" y="362" text-anchor="middle" font-size="9" font-weight="600" fill="#a3aab5">196</text>
        </g>

        <path d="M60 398v6M60 401l11-5.5 11 5.5-11 5.5z" fill="none" stroke="#0072bc" stroke-width="1.6" stroke-linecap="round" stroke-linejoin="round"/>
        <text x="90" y="405" font-family="Manrope, sans-serif" font-size="14" font-weight="700" fill="#58595B">Departments</text>
        <line x1="60" y1="416" x2="330" y2="416" stroke="#f1f3f6" stroke-width="1.5"/>

        <rect x="60" y="424" width="270" height="26" fill="#eef6ff"/>
        <rect x="60" y="424" width="3" height="26" fill="#0072bc"/>
        <text x="82" y="441" font-family="Manrope, sans-serif" font-size="12.5" font-weight="500" fill="#0b1120">Computer Science &amp; Engineering</text>

        <line x1="60" y1="450" x2="60" y2="556" stroke="#A7A9AC"/>
        <g font-family="Manrope, sans-serif" font-size="12.5" font-weight="500" fill="#41474f">
            <text x="82" y="467">Software Engineering</text>
            <text x="82" y="493">Multimedia &amp; Creative Technology</text>
            <text x="82" y="519">Information Technology &amp; Management</text>
            <text x="82" y="545">Computing &amp; Information System</text>
        </g>

        <polygon points="60,578 79,578 71.5,587 71.5,593 66.5,591 66.5,587" fill="none" stroke="#034ea2" stroke-width="1.6" stroke-linejoin="round"/>
        <text x="90" y="590" font-family="Manrope, sans-serif" font-size="14" font-weight="700" fill="#58595B">Designations</text>
        <line x1="60" y1="601" x2="330" y2="601" stroke="#f1f3f6" stroke-width="1.5"/>
        <rect x="60" y="609" width="270" height="26" fill="#eef6ff"/>
        <rect x="60" y="609" width="3" height="26" fill="#034ea2"/>
        <text x="74" y="626" font-family="Manrope, sans-serif" font-size="12.5" font-weight="500" fill="#0b1120">All Designations</text>
        <line x1="60" y1="635" x2="60" y2="713" stroke="#A7A9AC"/>
        <g font-family="Manrope, sans-serif" font-size="12.5" font-weight="500" fill="#41474f">
            <text x="74" y="652">Professor</text>
            <text x="74" y="678">Associate Professor</text>
            <text x="74" y="704">Assistant Professor</text>
        </g>
    </g>

    <!-- ── The results column ─────────────────────────────────────────────── -->
    <rect x="355" y="158" width="86" height="18" rx="6" fill="#034ea2" fill-opacity="0.1"/>
    <text x="398" y="171" text-anchor="middle" font-family="Manrope, sans-serif" font-size="9" font-weight="700" letter-spacing="0.9" fill="#034ea2">ALL FACULTIES</text>
    <text x="355" y="203" font-family="Montserrat, sans-serif" font-size="22" font-weight="800" letter-spacing="-0.4" fill="#0b1120">Daffodil International University</text>
    <text x="371" y="223" font-family="Manrope, sans-serif" font-size="11.5" fill="#7b828c">1,861 Faculty Members</text>
    <path d="M357 215.5v-1.5a2.4 2.4 0 0 1 2.4-2.4h3.2a2.4 2.4 0 0 1 2.4 2.4v1.5M361 209.6a2.3 2.3 0 1 0 0-4.6 2.3 2.3 0 0 0 0 4.6" fill="none" stroke="#034ea2" stroke-width="1.4" stroke-linecap="round"/>

    <!-- The search field: white, but frosted-soft and rounder than DIU's. -->
    <rect x="355" y="238" width="785" height="38" rx="19" fill="#ffffff" fill-opacity="0.75" stroke="#eceef1"/>
    <circle cx="376" cy="257" r="5.4" fill="none" stroke="#034ea2" stroke-width="1.6"/>
    <line x1="380" y1="261" x2="383.5" y2="264.5" stroke="#034ea2" stroke-width="1.6" stroke-linecap="round"/>
    <text x="395" y="261" font-family="Manrope, sans-serif" font-size="12" fill="#a3aab5">Search teachers by name, email, department, faculty, designation…</text>

    <text x="355" y="306" font-family="Montserrat, sans-serif" font-size="19" font-weight="800" fill="#0b1120">1,861 Results</text>

    <rect x="355" y="325" width="4" height="14" rx="2" fill="#0072bc"/>
    <text x="367" y="337" font-family="Montserrat, sans-serif" font-size="12.5" font-weight="700" fill="#1f2937">Administration</text>

    <!-- Three cards: rounded far harder than DIU's, shadowed instead of
         hard-bordered, with pill tags. -->
    <g>
        <!-- Card 1 -->
        <g filter="url(#mod-shadow)">
            <rect x="355" y="352" width="247" height="300" rx="24" fill="#ffffff"/>
        </g>
        <g>
            <path d="M355 376a24 24 0 0 1 24-24h199a24 24 0 0 1 24 24v20H355z" fill="url(#mod-card-top-accent)"/>
            <rect x="355" y="352" width="247" height="44" fill="url(#mod-mesh)" fill-opacity="0.35"/>
            <rect x="373" y="374" width="44" height="44" rx="13" fill="#ffffff"/>
            <rect x="376" y="377" width="38" height="38" rx="10" fill="#0072bc"/>
            <text x="395" y="401" text-anchor="middle" font-family="Montserrat, sans-serif" font-size="13" font-weight="700" fill="#ffffff">MK</text>
            <rect x="425" y="378" width="42" height="14" rx="7" fill="#ffffff" fill-opacity="0.22"/>
            <text x="446" y="388" text-anchor="middle" font-family="Manrope, sans-serif" font-size="7.5" font-weight="700" letter-spacing="0.6" fill="#ffffff">DEAN</text>

            <text x="373" y="440" font-family="Manrope, sans-serif" font-size="12.5" font-weight="700" fill="#0b1120">Dr. Mohammad R. Kabir</text>
            <text x="373" y="455" font-family="Manrope, sans-serif" font-size="10" font-weight="500" fill="#41474f">Professor</text>
            <text x="373" y="468" font-family="Manrope, sans-serif" font-size="8.5" font-weight="600" letter-spacing="1" fill="#a3aab5">BUSINESS ADMINISTRATION</text>
            <line x1="373" y1="482" x2="584" y2="482" stroke="#f1f3f6"/>
            <g font-family="ui-monospace, monospace" font-size="9.5" fill="#41474f">
                <rect x="373" y="493" width="11" height="9" rx="2" fill="none" stroke="#034ea2" stroke-width="1.2"/>
                <text x="392" y="501">rokibul@daffodilvarsity.edu.bd</text>
            </g>
            <g font-family="Manrope, sans-serif" font-size="9.5" fill="#41474f">
                <path d="M374 514a8 8 0 0 0 8 8v-2l-2-1-1.5 1a7 7 0 0 1-2.5-2.5l1-1.5-1-2h-2z" fill="none" stroke="#034ea2" stroke-width="1.1"/>
                <text x="392" y="519">+880 1713 493 002</text>
                <path d="M379 532c0 3-4 6-4 6s-4-3-4-6a4 4 0 0 1 8 0Z" fill="none" stroke="#034ea2" stroke-width="1.1"/>
                <text x="392" y="537">Room 402, AB-4</text>
            </g>
            <rect x="373" y="549" width="70" height="14" rx="7" fill="#f1f3f6"/>
            <text x="408" y="559" text-anchor="middle" font-family="Manrope, sans-serif" font-size="8" fill="#7b828c">Corporate Finance</text>
            <rect x="449" y="549" width="60" height="14" rx="7" fill="#f1f3f6"/>
            <text x="479" y="559" text-anchor="middle" font-family="Manrope, sans-serif" font-size="8" fill="#7b828c">Econometrics</text>
            <rect x="373" y="570" width="66" height="14" rx="7" fill="#034ea2" fill-opacity="0.1"/>
            <text x="406" y="580" text-anchor="middle" font-family="Manrope, sans-serif" font-size="8" font-weight="500" fill="#034ea2">Capital Markets</text>

            <path d="M355 610h247v18a24 24 0 0 1-24 24H379a24 24 0 0 1-24-24z" fill="#f3f4f6"/>
            <line x1="355" y1="610" x2="602" y2="610" stroke="#f1f3f6"/>
            <path d="M377 630v-3M373 628l4.5-2.5 4.5 2.5-4.5 2.5z" fill="none" stroke="#034ea2" stroke-width="1.3" stroke-linejoin="round"/>
            <text x="390" y="632" font-family="Manrope, sans-serif" font-size="8.5" font-weight="600" letter-spacing="0.5" fill="#7b828c">42 PUBLICATIONS</text>
            <text x="566" y="633" text-anchor="end" font-family="Manrope, sans-serif" font-size="10" font-weight="700" fill="#034ea2">Profile</text>
            <path d="M572 629h7M576 626l3.5 3-3.5 3" fill="none" stroke="#034ea2" stroke-width="1.6" stroke-linecap="round" stroke-linejoin="round"/>
        </g>

        <!-- Card 2 -->
        <g filter="url(#mod-shadow)">
            <rect x="624" y="352" width="247" height="300" rx="24" fill="#ffffff"/>
        </g>
        <g>
            <path d="M624 376a24 24 0 0 1 24-24h199a24 24 0 0 1 24 24v20H624z" fill="url(#mod-card-top-accent)"/>
            <rect x="624" y="352" width="247" height="44" fill="url(#mod-mesh)" fill-opacity="0.35"/>
            <rect x="642" y="374" width="44" height="44" rx="13" fill="#ffffff"/>
            <rect x="645" y="377" width="38" height="38" rx="10" fill="#0072bc"/>
            <text x="664" y="401" text-anchor="middle" font-family="Montserrat, sans-serif" font-size="13" font-weight="700" fill="#ffffff">FJ</text>
            <rect x="694" y="378" width="76" height="14" rx="7" fill="#ffffff" fill-opacity="0.22"/>
            <text x="732" y="388" text-anchor="middle" font-family="Manrope, sans-serif" font-size="7.5" font-weight="700" letter-spacing="0.6" fill="#ffffff">HEAD OF DEPT</text>

            <text x="642" y="440" font-family="Manrope, sans-serif" font-size="12.5" font-weight="700" fill="#0b1120">Fatema Nasrin Jahan</text>
            <text x="642" y="455" font-family="Manrope, sans-serif" font-size="10" font-weight="500" fill="#41474f">Associate Professor</text>
            <text x="642" y="468" font-family="Manrope, sans-serif" font-size="8.5" font-weight="600" letter-spacing="1" fill="#a3aab5">ELECTRICAL ENGINEERING</text>
            <line x1="642" y1="482" x2="853" y2="482" stroke="#f1f3f6"/>
            <g font-family="ui-monospace, monospace" font-size="9.5" fill="#41474f">
                <rect x="642" y="493" width="11" height="9" rx="2" fill="none" stroke="#034ea2" stroke-width="1.2"/>
                <text x="661" y="501">fatema.eee@daffodilvarsity.edu.bd</text>
            </g>
            <g font-family="Manrope, sans-serif" font-size="9.5" fill="#41474f">
                <path d="M643 514a8 8 0 0 0 8 8v-2l-2-1-1.5 1a7 7 0 0 1-2.5-2.5l1-1.5-1-2h-2z" fill="none" stroke="#034ea2" stroke-width="1.1"/>
                <text x="661" y="519">+880 1841 555 190</text>
                <path d="M648 532c0 3-4 6-4 6s-4-3-4-6a4 4 0 0 1 8 0Z" fill="none" stroke="#034ea2" stroke-width="1.1"/>
                <text x="661" y="537">Room 118, AB-1</text>
            </g>
            <rect x="642" y="549" width="62" height="14" rx="7" fill="#f1f3f6"/>
            <text x="673" y="559" text-anchor="middle" font-family="Manrope, sans-serif" font-size="8" fill="#7b828c">Power Systems</text>
            <rect x="710" y="549" width="52" height="14" rx="7" fill="#f1f3f6"/>
            <text x="736" y="559" text-anchor="middle" font-family="Manrope, sans-serif" font-size="8" fill="#7b828c">Renewables</text>
            <rect x="642" y="570" width="74" height="14" rx="7" fill="#034ea2" fill-opacity="0.1"/>
            <text x="679" y="580" text-anchor="middle" font-family="Manrope, sans-serif" font-size="8" font-weight="500" fill="#034ea2">Smart Grid Design</text>

            <path d="M624 610h247v18a24 24 0 0 1-24 24H648a24 24 0 0 1-24-24z" fill="#f3f4f6"/>
            <line x1="624" y1="610" x2="871" y2="610" stroke="#f1f3f6"/>
            <path d="M646 630v-3M642 628l4.5-2.5 4.5 2.5-4.5 2.5z" fill="none" stroke="#034ea2" stroke-width="1.3" stroke-linejoin="round"/>
            <text x="659" y="632" font-family="Manrope, sans-serif" font-size="8.5" font-weight="600" letter-spacing="0.5" fill="#7b828c">27 PUBLICATIONS</text>
            <text x="835" y="633" text-anchor="end" font-family="Manrope, sans-serif" font-size="10" font-weight="700" fill="#034ea2">Profile</text>
            <path d="M841 629h7M845 626l3.5 3-3.5 3" fill="none" stroke="#034ea2" stroke-width="1.6" stroke-linecap="round" stroke-linejoin="round"/>
        </g>

        <!-- Card 3: no administrative role, so the primary-blue banner and no
             badge. -->
        <g filter="url(#mod-shadow)">
            <rect x="893" y="352" width="247" height="300" rx="24" fill="#ffffff"/>
        </g>
        <g>
            <path d="M893 376a24 24 0 0 1 24-24h199a24 24 0 0 1 24 24v20H893z" fill="url(#mod-card-top)"/>
            <rect x="893" y="352" width="247" height="44" fill="url(#mod-mesh)" fill-opacity="0.35"/>
            <rect x="911" y="374" width="44" height="44" rx="13" fill="#ffffff"/>
            <rect x="914" y="377" width="38" height="38" rx="10" fill="#034ea2"/>
            <text x="933" y="401" text-anchor="middle" font-family="Montserrat, sans-serif" font-size="13" font-weight="700" fill="#ffffff">AM</text>

            <text x="911" y="440" font-family="Manrope, sans-serif" font-size="12.5" font-weight="700" fill="#0b1120">Abdullah Al Mamun</text>
            <text x="911" y="455" font-family="Manrope, sans-serif" font-size="10" font-weight="500" fill="#41474f">Professor</text>
            <text x="911" y="468" font-family="Manrope, sans-serif" font-size="8.5" font-weight="600" letter-spacing="1" fill="#a3aab5">COMPUTER SCIENCE &amp; ENGINEERING</text>
            <line x1="911" y1="482" x2="1122" y2="482" stroke="#f1f3f6"/>
            <g font-family="ui-monospace, monospace" font-size="9.5" fill="#41474f">
                <rect x="911" y="493" width="11" height="9" rx="2" fill="none" stroke="#034ea2" stroke-width="1.2"/>
                <text x="930" y="501">mamun.cse@daffodilvarsity.edu.bd</text>
            </g>
            <g font-family="Manrope, sans-serif" font-size="9.5" fill="#41474f">
                <path d="M912 514a8 8 0 0 0 8 8v-2l-2-1-1.5 1a7 7 0 0 1-2.5-2.5l1-1.5-1-2h-2z" fill="none" stroke="#034ea2" stroke-width="1.1"/>
                <text x="930" y="519">+880 1799 446 617</text>
                <path d="M917 532c0 3-4 6-4 6s-4-3-4-6a4 4 0 0 1 8 0Z" fill="none" stroke="#034ea2" stroke-width="1.1"/>
                <text x="930" y="537">Room 902, DT-1</text>
            </g>
            <rect x="911" y="549" width="76" height="14" rx="7" fill="#f1f3f6"/>
            <text x="949" y="559" text-anchor="middle" font-family="Manrope, sans-serif" font-size="8" fill="#7b828c">Machine Learning</text>
            <rect x="993" y="549" width="34" height="14" rx="7" fill="#f1f3f6"/>
            <text x="1010" y="559" text-anchor="middle" font-family="Manrope, sans-serif" font-size="8" fill="#7b828c">NLP</text>
            <rect x="911" y="570" width="88" height="14" rx="7" fill="#034ea2" fill-opacity="0.1"/>
            <text x="955" y="580" text-anchor="middle" font-family="Manrope, sans-serif" font-size="8" font-weight="500" fill="#034ea2">Distributed Systems</text>

            <path d="M893 610h247v18a24 24 0 0 1-24 24H917a24 24 0 0 1-24-24z" fill="#f3f4f6"/>
            <line x1="893" y1="610" x2="1140" y2="610" stroke="#f1f3f6"/>
            <path d="M915 630v-3M911 628l4.5-2.5 4.5 2.5-4.5 2.5z" fill="none" stroke="#034ea2" stroke-width="1.3" stroke-linejoin="round"/>
            <text x="928" y="632" font-family="Manrope, sans-serif" font-size="8.5" font-weight="600" letter-spacing="0.5" fill="#7b828c">31 PUBLICATIONS</text>
            <text x="1104" y="633" text-anchor="end" font-family="Manrope, sans-serif" font-size="10" font-weight="700" fill="#034ea2">Profile</text>
            <path d="M1110 629h7M1114 626l3.5 3-3.5 3" fill="none" stroke="#034ea2" stroke-width="1.6" stroke-linecap="round" stroke-linejoin="round"/>
        </g>
    </g>

    <!-- The next row, cropped by the frame: a grid continues past the fold. -->
    <g opacity="0.9">
        <path d="M355 698a24 24 0 0 1 24-24h199a24 24 0 0 1 24 24v52H355z" fill="#ffffff"/>
        <path d="M355 698a24 24 0 0 1 24-24h199a24 24 0 0 1 24 24v10H355z" fill="url(#mod-card-top)"/>
        <path d="M624 698a24 24 0 0 1 24-24h199a24 24 0 0 1 24 24v52H624z" fill="#ffffff"/>
        <path d="M624 698a24 24 0 0 1 24-24h199a24 24 0 0 1 24 24v10H624z" fill="url(#mod-card-top)"/>
        <path d="M893 698a24 24 0 0 1 24-24h199a24 24 0 0 1 24 24v52H893z" fill="#ffffff"/>
        <path d="M893 698a24 24 0 0 1 24-24h199a24 24 0 0 1 24 24v10H893z" fill="url(#mod-card-top)"/>
    </g>
</svg>
